<?xml version="1.0" encoding="utf-8"?>
<!-- Generator: Adobe Illustrator 16.0.0, SVG Export Plug-In . SVG Version: 6.00 Build 0)  -->
<!DOCTYPE svg PUBLIC "-//W3C//DTD SVG 1.1//EN" "http://www.w3.org/Graphics/SVG/1.1/DTD/svg11.dtd">
<svg version="1.1" id="Layer_1" xmlns="http://www.w3.org/2000/svg" xmlns:xlink="http://www.w3.org/1999/xlink" x="0px" y="0px"
	 width="1400px" height="980px" viewBox="0 0 1400 980" enable-background="new 0 0 1400 980" xml:space="preserve">
<g>
	<g>
		<g>
			<rect fill="#FFFFFF" width="1400" height="980"/>
		</g>
	</g>
	<g>
		<g>
			<path fill="#F1F2F2" d="M396.5,871.8c3.2,28.8,27.6,51.2,57.3,51.2h488.7c29.7,0,54.1-22.4,57.3-51.2H396.5z"/>
			<path d="M942.4,925.5H453.8c-30.6,0-56.3-22.9-59.7-53.4c-0.1-0.7,0.1-1.4,0.6-1.9c0.5-0.5,1.1-0.8,1.8-0.8h603.2
				c0.7,0,1.3,0.3,1.8,0.8c0.5,0.5,0.7,1.2,0.6,1.9C998.7,902.5,973.1,925.5,942.4,925.5z M399.2,874.2
				c4.3,26.7,27.2,46.4,54.5,46.4h488.7c27.3,0,50.3-19.8,54.5-46.4H399.2z"/>
		</g>
		<g>
			<g>
				<rect x="470.4" y="577.2" fill="#F1F2F2" width="455.3" height="38.4"/>
				<path d="M925.7,618H470.4c-1.3,0-2.4-1.1-2.4-2.4v-38.4c0-1.3,1.1-2.4,2.4-2.4h455.3c1.3,0,2.4,1.1,2.4,2.4v38.4
					C928.1,617,927,618,925.7,618z M472.9,613.2h450.5v-33.6H472.9V613.2z"/>
			</g>
			<g>
				<rect x="470.4" y="615.6" fill="#AFEBFF" width="455.3" height="256.2"/>
				<path d="M925.7,874.2H470.4c-1.3,0-2.4-1.1-2.4-2.4V615.6c0-1.3,1.1-2.4,2.4-2.4h455.3c1.3,0,2.4,1.1,2.4,2.4v256.2
					C928.1,873.1,927,874.2,925.7,874.2z M472.9,869.4h450.5V618H472.9V869.4z"/>
			</g>
		</g>
		<g>
			<rect x="627.2" y="871.8" fill="#D1D3D4" width="141.7" height="15.2"/>
			<path d="M768.9,889.4H627.2c-1.3,0-2.4-1.1-2.4-2.4v-15.2c0-1.3,1.1-2.4,2.4-2.4h141.7c1.3,0,2.4,1.1,2.4,2.4V887
				C771.3,888.4,770.3,889.4,768.9,889.4z M629.6,884.6h136.9v-10.4H629.6V884.6z"/>
		</g>
	</g>
	<g>
		<g>
			<rect x="458.8" y="130" fill="#F1F2F2" width="439.8" height="343.2"/>
			<path d="M898.6,475.6H458.8c-1.3,0-2.4-1.1-2.4-2.4V130c0-1.3,1.1-2.4,2.4-2.4h439.8c1.3,0,2.4,1.1,2.4,2.4v343.2
				C901,474.5,899.9,475.6,898.6,475.6z M461.2,470.8h435V132.4h-435V470.8z"/>
		</g>
		<g>
			<g>
				<rect x="511" y="80.7" fill="#FFFFFF" width="439.8" height="343.2"/>
				<path d="M950.8,426.3H511c-1.3,0-2.4-1.1-2.4-2.4V80.7c0-1.3,1.1-2.4,2.4-2.4h439.8c1.3,0,2.4,1.1,2.4,2.4v343.2
					C953.2,425.3,952.1,426.3,950.8,426.3z M513.4,421.5h435V83.1h-435V421.5z"/>
			</g>
			<g>
				<path d="M577.9,118.6h4.1l54.9,80.5v-80.5h4v87.5h-4l-55-80.4v80.4h-4V118.6z"/>
				<path d="M660.9,118.6h53.4v3.9H665v36.1H704v3.8H665v39.8h50.5v3.9h-54.6V118.6z"/>
				<path d="M720.8,118.6h4.1l21.4,80.2l21.7-59.4h3.9l21.8,59.4l21.3-80.2h4.1l-23.4,87.5h-4.1l-21.7-61l-21.7,61h-4.1L720.8,118.6
					z"/>
				<path d="M829.6,179.4c0.5,7.6,3,13.7,7.5,18.2c4.5,4.5,10.6,6.8,18.4,6.8c6.8,0,12.5-1.7,17-5.1c5.2-3.7,7.8-8.8,7.8-15.3
					c0-6.7-2.7-11.8-8.1-15.2c-2.7-1.8-8.5-3.9-17.5-6.3c-0.1-0.1-0.6-0.2-1.6-0.5c-10.1-2.8-16.4-5.5-19.1-7.9
					c-4.1-3.7-6.2-8.6-6.2-14.5c0-7.5,2.6-13.2,7.8-17.2c4.8-3.8,10.9-5.7,18.5-5.7c8.2,0,14.8,2.2,19.7,6.7
					c5.1,4.5,7.9,10.8,8.3,19h-3.9c-0.2-7.1-2.6-12.6-7.2-16.5c-4.5-3.8-10.2-5.7-17.2-5.7c-6.5,0-11.7,1.6-15.7,4.9
					c-4.3,3.4-6.4,8.3-6.4,14.6c0,4.5,1.8,8.5,5.4,11.8c2.7,2.4,8.4,4.8,17.3,7.1c0.2,0.1,0.4,0.1,0.7,0.2c0.3,0,0.6,0.1,1,0.3
					c9.3,2.5,15.7,4.9,19.2,7.1c6.2,4,9.2,9.6,9.2,16.9c0,8.1-2.9,14.4-8.6,19c-5.3,4.1-12.1,6.1-20.4,6.1c-8.8,0-15.9-2.6-21-7.7
					c-5.3-4.9-8.2-11.9-8.8-20.8H829.6z"/>
			</g>
			<g>
				<rect x="553.7" y="240.3" fill="#FFB5AB" width="87.3" height="23.9"/>
				<path d="M641,266.7h-87.3c-1.3,0-2.4-1.1-2.4-2.4v-23.9c0-1.3,1.1-2.4,2.4-2.4H641c1.3,0,2.4,1.1,2.4,2.4v23.9
					C643.4,265.6,642.3,266.7,641,266.7z M556.1,261.9h82.5v-19.1h-82.5V261.9z"/>
			</g>
			<g>
				<rect x="553.7" y="289.6" fill="#FFB5AB" width="87.3" height="23.9"/>
				<path d="M641,315.9h-87.3c-1.3,0-2.4-1.1-2.4-2.4v-23.9c0-1.3,1.1-2.4,2.4-2.4H641c1.3,0,2.4,1.1,2.4,2.4v23.9
					C643.4,314.9,642.3,315.9,641,315.9z M556.1,311.1h82.5V292h-82.5V311.1z"/>
			</g>
			<g>
				<rect x="676.6" y="289.6" fill="#FFB5AB" width="87.3" height="23.9"/>
				<path d="M763.9,315.9h-87.3c-1.3,0-2.4-1.1-2.4-2.4v-23.9c0-1.3,1.1-2.4,2.4-2.4h87.3c1.3,0,2.4,1.1,2.4,2.4v23.9
					C766.3,314.9,765.2,315.9,763.9,315.9z M679,311.1h82.5V292H679V311.1z"/>
			</g>
			<g>
				<rect x="799.4" y="289.6" fill="#FFB5AB" width="108.7" height="23.9"/>
				<path d="M908.1,315.9H799.4c-1.3,0-2.4-1.1-2.4-2.4v-23.9c0-1.3,1.1-2.4,2.4-2.4h108.7c1.3,0,2.4,1.1,2.4,2.4v23.9
					C910.5,314.9,909.4,315.9,908.1,315.9z M801.8,311.1h103.9V292H801.8V311.1z"/>
			</g>
			<g>
				<rect x="676.6" y="338.9" fill="#FFB5AB" width="87.3" height="23.9"/>
				<path d="M763.9,365.2h-87.3c-1.3,0-2.4-1.1-2.4-2.4v-23.9c0-1.3,1.1-2.4,2.4-2.4h87.3c1.3,0,2.4,1.1,2.4,2.4v23.9
					C766.3,364.1,765.2,365.2,763.9,365.2z M679,360.4h82.5v-19.1H679V360.4z"/>
			</g>
			<g>
				<rect x="799.4" y="338.9" fill="#FFB5AB" width="108.7" height="23.9"/>
				<path d="M908.1,365.2H799.4c-1.3,0-2.4-1.1-2.4-2.4v-23.9c0-1.3,1.1-2.4,2.4-2.4h108.7c1.3,0,2.4,1.1,2.4,2.4v23.9
					C910.5,364.1,909.4,365.2,908.1,365.2z M801.8,360.4h103.9v-19.1H801.8V360.4z"/>
			</g>
			<g>
				<rect x="553.7" y="338.9" fill="#FFB5AB" width="87.3" height="23.9"/>
				<path d="M641,365.2h-87.3c-1.3,0-2.4-1.1-2.4-2.4v-23.9c0-1.3,1.1-2.4,2.4-2.4H641c1.3,0,2.4,1.1,2.4,2.4v23.9
					C643.4,364.1,642.3,365.2,641,365.2z M556.1,360.4h82.5v-19.1h-82.5V360.4z"/>
			</g>
			<g>
				<rect x="676.6" y="240.3" fill="#FFB5AB" width="231.5" height="23.9"/>
				<path d="M908.1,266.7H676.6c-1.3,0-2.4-1.1-2.4-2.4v-23.9c0-1.3,1.1-2.4,2.4-2.4h231.5c1.3,0,2.4,1.1,2.4,2.4v23.9
					C910.5,265.6,909.4,266.7,908.1,266.7z M679,261.9h226.7v-19.1H679V261.9z"/>
			</g>
		</g>
	</g>
	<g>
		<path d="M577.2,686.1c-1.3,0-2.4-1.1-2.4-2.4V526.8H413.9c-1.3,0-2.4-1.1-2.4-2.4V252.3c0-1.3,1.1-2.4,2.4-2.4s2.4,1.1,2.4,2.4
			V522h160.9c1.3,0,2.4,1.1,2.4,2.4v159.3C579.6,685,578.5,686.1,577.2,686.1z"/>
	</g>
	<g>
		<path d="M817.4,686.1c-1.3,0-2.4-1.1-2.4-2.4V523.5c0-1.3,1.1-2.4,2.4-2.4h120.9v-48c0-1.3,1.1-2.4,2.4-2.4h48.8V325
			c0-1.3,1.1-2.4,2.4-2.4c1.3,0,2.4,1.1,2.4,2.4v148.2c0,1.3-1.1,2.4-2.4,2.4h-48.8v48c0,1.3-1.1,2.4-2.4,2.4H819.8v157.7
			C819.8,685,818.7,686.1,817.4,686.1z"/>
	</g>
	<g>
		<path d="M698.1,686.1c-1.3,0-2.4-1.1-2.4-2.4V524.4c0-1.3,1.1-2.4,2.4-2.4s2.4,1.1,2.4,2.4v159.3
			C700.5,685,699.4,686.1,698.1,686.1z"/>
	</g>
	<g>
		<path d="M577.2,686.1c-0.6,0-1.2-0.2-1.7-0.7L533,642.9c-0.9-0.9-0.9-2.5,0-3.4c0.9-0.9,2.5-0.9,3.4,0l40.8,40.8l40.8-40.8
			c0.9-0.9,2.5-0.9,3.4,0c0.9,0.9,0.9,2.5,0,3.4l-42.5,42.5C578.4,685.8,577.8,686.1,577.2,686.1z"/>
	</g>
	<g>
		<path d="M698.1,686.1c-0.6,0-1.2-0.2-1.7-0.7l-42.5-42.5c-0.9-0.9-0.9-2.5,0-3.4c0.9-0.9,2.5-0.9,3.4,0l40.8,40.8l40.8-40.8
			c0.9-0.9,2.5-0.9,3.4,0s0.9,2.5,0,3.4l-42.5,42.5C699.3,685.8,698.7,686.1,698.1,686.1z"/>
	</g>
	<g>
		<path d="M819,686.1c-0.6,0-1.2-0.2-1.7-0.7l-42.5-42.5c-0.9-0.9-0.9-2.5,0-3.4s2.5-0.9,3.4,0l40.8,40.8l40.8-40.8
			c0.9-0.9,2.5-0.9,3.4,0c0.9,0.9,0.9,2.5,0,3.4l-42.5,42.5C820.2,685.8,819.6,686.1,819,686.1z"/>
	</g>
	<g>
		<rect x="543.6" y="728.5" fill="#FFB5AB" width="67.3" height="67.3"/>
		<path d="M610.8,798.2h-67.3c-1.3,0-2.4-1.1-2.4-2.4v-67.3c0-1.3,1.1-2.4,2.4-2.4h67.3c1.3,0,2.4,1.1,2.4,2.4v67.3
			C613.2,797.1,612.1,798.2,610.8,798.2z M546,793.4h62.4v-62.4H546V793.4z"/>
	</g>
	<g>
		<rect x="664.5" y="728.5" fill="#FFFFFF" width="67.3" height="67.3"/>
		<path d="M731.7,798.2h-67.3c-1.3,0-2.4-1.1-2.4-2.4v-67.3c0-1.3,1.1-2.4,2.4-2.4h67.3c1.3,0,2.4,1.1,2.4,2.4v67.3
			C734.1,797.1,733,798.2,731.7,798.2z M666.9,793.4h62.4v-62.4h-62.4V793.4z"/>
	</g>
	<g>
		<rect x="785.4" y="728.5" fill="#FFFAD1" width="67.3" height="67.3"/>
		<path fill="#231F20" d="M852.6,798.2h-67.3c-1.3,0-2.4-1.1-2.4-2.4v-67.3c0-1.3,1.1-2.4,2.4-2.4h67.3c1.3,0,2.4,1.1,2.4,2.4v67.3
			C855,797.1,853.9,798.2,852.6,798.2z M787.8,793.4h62.4v-62.4h-62.4V793.4z"/>
	</g>
	<g>
		<g>
			<path fill="#F1F2F2" d="M1110.4,259v78.3c0,36.2,29.4,65.6,65.6,65.6h7.3c36.2,0,65.6-29.4,65.6-65.6V259H1110.4z"/>
			<path d="M1183.3,405.3h-7.3c-37.5,0-68-30.5-68-68V259c0-1.3,1.1-2.4,2.4-2.4h138.5c1.3,0,2.4,1.1,2.4,2.4v78.3
				C1251.3,374.8,1220.8,405.3,1183.3,405.3z M1112.8,261.4v75.9c0,34.9,28.4,63.2,63.2,63.2h7.3c34.9,0,63.2-28.4,63.2-63.2v-75.9
				H1112.8z"/>
		</g>
		<g>
			<path d="M1183.3,443.6h-7.3c-58.6,0-106.3-47.7-106.3-106.3v-78.8c0-1.3,1.1-2.4,2.4-2.4c1.3,0,2.4,1.1,2.4,2.4v78.8
				c0,56,45.5,101.5,101.5,101.5h7.3c56,0,101.5-45.5,101.5-101.5v-78.8c0-1.3,1.1-2.4,2.4-2.4c1.3,0,2.4,1.1,2.4,2.4v78.8
				C1289.6,395.9,1241.9,443.6,1183.3,443.6z"/>
		</g>
		<g>
			<path d="M1248.9,218.5h-138.5c-1.3,0-2.4-1.1-2.4-2.4v-78.3c0-37.5,30.5-68,68-68h7.3c37.5,0,68,30.5,68,68v78.3
				C1251.3,217.5,1250.2,218.5,1248.9,218.5z M1112.8,213.7h133.7v-75.9c0-34.9-28.4-63.2-63.2-63.2h-7.3
				c-34.9,0-63.2,28.4-63.2,63.2V213.7z"/>
		</g>
		<g>
			<path d="M1279.9,240h-200.5c-1.3,0-2.4-1.1-2.4-2.4s1.1-2.4,2.4-2.4h200.5c1.3,0,2.4,1.1,2.4,2.4S1281.2,240,1279.9,240z"/>
		</g>
		<g>
			<path d="M1183.3,480.1c-1.3,0-2.4-1.1-2.4-2.4v-36.5c0-1.3,1.1-2.4,2.4-2.4c1.3,0,2.4,1.1,2.4,2.4v36.5
				C1185.7,479,1184.6,480.1,1183.3,480.1z"/>
		</g>
		<g>
			<rect x="1105.1" y="477.7" fill="#FFB5AB" width="156.3" height="23.2"/>
			<path d="M1261.4,503.3h-156.3c-1.3,0-2.4-1.1-2.4-2.4v-23.2c0-1.3,1.1-2.4,2.4-2.4h156.3c1.3,0,2.4,1.1,2.4,2.4v23.2
				C1263.8,502.2,1262.7,503.3,1261.4,503.3z M1107.5,498.5H1259v-18.4h-151.5V498.5z"/>
		</g>
		<g>
			<path d="M1131.6,218.5c-1.3,0-2.4-1.1-2.4-2.4v-83.4c0-1.3,1.1-2.4,2.4-2.4s2.4,1.1,2.4,2.4v83.4
				C1134,217.5,1132.9,218.5,1131.6,218.5z"/>
		</g>
		<g>
			<path d="M1155.6,218.5c-1.3,0-2.4-1.1-2.4-2.4v-83.4c0-1.3,1.1-2.4,2.4-2.4c1.3,0,2.4,1.1,2.4,2.4v83.4
				C1158,217.5,1156.9,218.5,1155.6,218.5z"/>
		</g>
		<g>
			<path d="M1179.6,218.5c-1.3,0-2.4-1.1-2.4-2.4v-83.4c0-1.3,1.1-2.4,2.4-2.4c1.3,0,2.4,1.1,2.4,2.4v83.4
				C1182,217.5,1181,218.5,1179.6,218.5z"/>
		</g>
		<g>
			<path d="M1203.7,218.5c-1.3,0-2.4-1.1-2.4-2.4v-83.4c0-1.3,1.1-2.4,2.4-2.4c1.3,0,2.4,1.1,2.4,2.4v83.4
				C1206.1,217.5,1205,218.5,1203.7,218.5z"/>
		</g>
		<g>
			<path d="M1227.7,218.5c-1.3,0-2.4-1.1-2.4-2.4v-83.4c0-1.3,1.1-2.4,2.4-2.4c1.3,0,2.4,1.1,2.4,2.4v83.4
				C1230.1,217.5,1229,218.5,1227.7,218.5z"/>
		</g>
		<g>
			<path d="M1212.4,286.4h-102.1c-1.3,0-2.4-1.1-2.4-2.4s1.1-2.4,2.4-2.4h102.1c1.3,0,2.4,1.1,2.4,2.4S1213.8,286.4,1212.4,286.4z"
				/>
		</g>
		<g>
			<path d="M1212.4,313.8h-102.1c-1.3,0-2.4-1.1-2.4-2.4c0-1.3,1.1-2.4,2.4-2.4h102.1c1.3,0,2.4,1.1,2.4,2.4
				C1214.8,312.7,1213.8,313.8,1212.4,313.8z"/>
		</g>
		<g>
			<path d="M1212.4,341.1h-102.1c-1.3,0-2.4-1.1-2.4-2.4s1.1-2.4,2.4-2.4h102.1c1.3,0,2.4,1.1,2.4,2.4S1213.8,341.1,1212.4,341.1z"
				/>
		</g>
		<g>
			<path d="M1079.4,260.9h-17.3c-1.3,0-2.4-1.1-2.4-2.4v-41.9c0-1.3,1.1-2.4,2.4-2.4h17.3c1.3,0,2.4,1.1,2.4,2.4v41.9
				C1081.8,259.8,1080.7,260.9,1079.4,260.9z M1064.5,256.1h12.5V219h-12.5V256.1z"/>
		</g>
		<g>
			<path d="M1297.2,260.9h-17.3c-1.3,0-2.4-1.1-2.4-2.4v-41.9c0-1.3,1.1-2.4,2.4-2.4h17.3c1.3,0,2.4,1.1,2.4,2.4v41.9
				C1299.6,259.8,1298.5,260.9,1297.2,260.9z M1282.3,256.1h12.5V219h-12.5V256.1z"/>
		</g>
	</g>
	<g>
		<g>
			<path d="M1281.8,913.1h-138.8c-15,0-27.1-12.2-27.1-27.1v-28.2c0-1.3,1.1-2.4,2.4-2.4h188.2c1.3,0,2.4,1.1,2.4,2.4v28.2
				C1308.9,900.9,1296.8,913.1,1281.8,913.1z M1120.7,860.2v25.8c0,12.3,10,22.3,22.3,22.3h138.8c12.3,0,22.3-10,22.3-22.3v-25.8
				H1120.7z"/>
		</g>
		<g>
			<path d="M1306.5,617.7h-188.2c-1.3,0-2.4-1.1-2.4-2.4v-13.7c0-15,12.2-27.1,27.1-27.1h138.8c15,0,27.1,12.2,27.1,27.1v13.7
				C1308.9,616.6,1307.9,617.7,1306.5,617.7z M1120.7,612.9h183.4v-11.3c0-12.3-10-22.3-22.3-22.3h-138.8c-12.3,0-22.3,10-22.3,22.3
				V612.9z"/>
		</g>
		<g>
			<rect x="1118.3" y="615.3" fill="#F1F2F2" width="188.2" height="242.5"/>
			<path d="M1306.5,860.2h-188.2c-1.3,0-2.4-1.1-2.4-2.4V615.3c0-1.3,1.1-2.4,2.4-2.4h188.2c1.3,0,2.4,1.1,2.4,2.4v242.5
				C1308.9,859.1,1307.9,860.2,1306.5,860.2z M1120.7,855.4h183.4V617.7h-183.4V855.4z"/>
		</g>
		<g>
			<path fill="#AFEBFF" d="M1227.2,884.2c0,8.2-6.6,14.8-14.8,14.8c-8.2,0-14.8-6.6-14.8-14.8c0-8.2,6.6-14.8,14.8-14.8
				C1220.6,869.4,1227.2,876,1227.2,884.2z"/>
			<path d="M1212.4,901.4c-9.5,0-17.2-7.7-17.2-17.2s7.7-17.2,17.2-17.2c9.5,0,17.2,7.7,17.2,17.2S1221.9,901.4,1212.4,901.4z
				 M1212.4,871.8c-6.8,0-12.4,5.5-12.4,12.4s5.5,12.4,12.4,12.4c6.8,0,12.4-5.5,12.4-12.4S1219.3,871.8,1212.4,871.8z"/>
		</g>
		<g>
			<path d="M1235.8,598.4h-46.7c-1.3,0-2.4-1.1-2.4-2.4c0-1.3,1.1-2.4,2.4-2.4h46.7c1.3,0,2.4,1.1,2.4,2.4
				C1238.2,597.4,1237.1,598.4,1235.8,598.4z"/>
		</g>
	</g>
	<g>
		<rect x="988.7" y="653.7" fill="#FFFAD1" width="232.9" height="149.6"/>
		<path fill="#231F20" d="M1221.6,805.7H988.7c-1.3,0-2.4-1.1-2.4-2.4V653.7c0-1.3,1.1-2.4,2.4-2.4h232.9c1.3,0,2.4,1.1,2.4,2.4
			v149.6C1224,804.7,1222.9,805.7,1221.6,805.7z M991.1,800.9h228.1V656.1H991.1V800.9z"/>
	</g>
	<g>
		<line fill="#FFFFFF" x1="988.7" y1="653.7" x2="1105.1" y2="751.3"/>
		<path fill="#231F20" d="M1105.1,753.7c-0.5,0-1.1-0.2-1.5-0.6l-116.5-97.6c-1-0.8-1.1-2.4-0.3-3.4c0.9-1,2.4-1.1,3.4-0.3
			l116.5,97.6c1,0.8,1.1,2.4,0.3,3.4C1106.5,753.4,1105.8,753.7,1105.1,753.7z"/>
	</g>
	<g>
		<line fill="#FFFFFF" x1="1105.1" y1="751.3" x2="1221.6" y2="653.7"/>
		<path fill="#231F20" d="M1105.1,753.7c-0.7,0-1.4-0.3-1.8-0.9c-0.9-1-0.7-2.5,0.3-3.4l116.5-97.6c1-0.9,2.5-0.7,3.4,0.3
			c0.9,1,0.7,2.5-0.3,3.4l-116.5,97.6C1106.2,753.5,1105.7,753.7,1105.1,753.7z"/>
	</g>
	<g>
		<path fill="#231F20" d="M1179.7,753.7H1131c-1.3,0-2.4-1.1-2.4-2.4c0-1.3,1.1-2.4,2.4-2.4h48.7c1.3,0,2.4,1.1,2.4,2.4
			C1182.1,752.6,1181,753.7,1179.7,753.7z"/>
	</g>
	<g>
		<path fill="#231F20" d="M1079.2,753.7h-48.7c-1.3,0-2.4-1.1-2.4-2.4c0-1.3,1.1-2.4,2.4-2.4h48.7c1.3,0,2.4,1.1,2.4,2.4
			C1081.6,752.6,1080.6,753.7,1079.2,753.7z"/>
	</g>
	<g>
		<path fill="#231F20" d="M1261.4,791.9h-39.8c-1.3,0-2.4-1.1-2.4-2.4c0-1.3,1.1-2.4,2.4-2.4h39.8c1.3,0,2.4,1.1,2.4,2.4
			C1263.8,790.9,1262.7,791.9,1261.4,791.9z"/>
	</g>
	<g>
		<path fill="#231F20" d="M1261.4,730.9h-39.8c-1.3,0-2.4-1.1-2.4-2.4c0-1.3,1.1-2.4,2.4-2.4h39.8c1.3,0,2.4,1.1,2.4,2.4
			C1263.8,729.8,1262.7,730.9,1261.4,730.9z"/>
	</g>
	<g>
		<path fill="#231F20" d="M1261.4,669.9h-39.8c-1.3,0-2.4-1.1-2.4-2.4c0-1.3,1.1-2.4,2.4-2.4h39.8c1.3,0,2.4,1.1,2.4,2.4
			C1263.8,668.8,1262.7,669.9,1261.4,669.9z"/>
	</g>
	<g>
		<g>
			<path fill="#231F20" d="M381.5,817.5H129.8c-19.2,0-34.7-15.6-34.7-34.7V651.1c0-19.2,15.6-34.7,34.7-34.7h251.7
				c19.2,0,34.7,15.6,34.7,34.7v131.6C416.3,801.9,400.7,817.5,381.5,817.5z M129.8,621.2c-16.5,0-29.9,13.4-29.9,29.9v131.6
				c0,16.5,13.4,29.9,29.9,29.9h251.7c16.5,0,29.9-13.4,29.9-29.9V651.1c0-16.5-13.4-29.9-29.9-29.9H129.8z"/>
		</g>
		<g>
			<path fill="#F1F2F2" d="M334.8,716.9c0,43.7-35.4,79.1-79.2,79.1c-43.7,0-79.2-35.4-79.2-79.1c0-43.7,35.4-79.2,79.2-79.2
				C299.4,637.8,334.8,673.2,334.8,716.9z"/>
			<path d="M255.7,798.5c-45,0-81.6-36.6-81.6-81.6c0-45,36.6-81.6,81.6-81.6s81.6,36.6,81.6,81.6
				C337.2,761.9,300.6,798.5,255.7,798.5z M255.7,640.2c-42.3,0-76.8,34.4-76.8,76.8c0,42.3,34.4,76.7,76.8,76.7
				c42.3,0,76.8-34.4,76.8-76.7C332.4,674.6,298,640.2,255.7,640.2z"/>
		</g>
		<g>
			<path fill="#FFFAD1" d="M314.2,716.9c0,32.3-26.2,58.5-58.5,58.5c-32.3,0-58.5-26.2-58.5-58.5c0-32.3,26.2-58.5,58.5-58.5
				C288,658.4,314.2,684.6,314.2,716.9z"/>
			<path fill="#231F20" d="M255.7,777.8c-33.6,0-60.9-27.3-60.9-60.9c0-33.6,27.3-60.9,60.9-60.9s60.9,27.3,60.9,60.9
				C316.6,750.5,289.2,777.8,255.7,777.8z M255.7,660.8c-30.9,0-56.1,25.2-56.1,56.1c0,30.9,25.2,56.1,56.1,56.1
				s56.1-25.2,56.1-56.1C311.8,686,286.6,660.8,255.7,660.8z"/>
		</g>
		<g>
			<rect x="336.6" y="637.8" fill="#AFEBFF" width="54.8" height="41.3"/>
			<path d="M391.4,681.5h-54.8c-1.3,0-2.4-1.1-2.4-2.4v-41.3c0-1.3,1.1-2.4,2.4-2.4h54.8c1.3,0,2.4,1.1,2.4,2.4v41.3
				C393.8,680.4,392.7,681.5,391.4,681.5z M339,676.7h50v-36.5h-50V676.7z"/>
		</g>
		<g>
			<path fill="#231F20" d="M295.4,621.2h-79.5c-1.3,0-2.4-1.1-2.4-2.4v-21.1c0-10.2,8.3-18.6,18.6-18.6h47.2
				c10.2,0,18.6,8.3,18.6,18.6v21.1C297.8,620.1,296.7,621.2,295.4,621.2z M218.3,616.4H293v-18.7c0-7.6-6.2-13.8-13.8-13.8h-47.2
				c-7.6,0-13.8,6.2-13.8,13.8V616.4z"/>
		</g>
		<g>
			<path fill="#231F20" d="M309.9,596.7H201.5c-1.3,0-2.4-1.1-2.4-2.4c0-1.3,1.1-2.4,2.4-2.4h108.4c1.3,0,2.4,1.1,2.4,2.4
				C312.3,595.7,311.2,596.7,309.9,596.7z"/>
		</g>
		<g>
			<path fill="#231F20" d="M315.4,610.2H210.3c-1.3,0-2.4-1.1-2.4-2.4c0-1.3,1.1-2.4,2.4-2.4h105.1c1.3,0,2.4,1.1,2.4,2.4
				C317.8,609.1,316.7,610.2,315.4,610.2z"/>
		</g>
		<g>
			<path fill="#231F20" d="M228.9,746.1c-0.6,0-1.2-0.2-1.7-0.7c-0.9-0.9-0.9-2.5,0-3.4l53.5-53.5c0.9-0.9,2.5-0.9,3.4,0
				c0.9,0.9,0.9,2.5,0,3.4l-53.5,53.5C230.2,745.8,229.6,746.1,228.9,746.1z"/>
		</g>
		<g>
			<path fill="#231F20" d="M256.8,754.4c-0.6,0-1.2-0.2-1.7-0.7c-0.9-0.9-0.9-2.5,0-3.4l35.7-35.7c0.9-0.9,2.5-0.9,3.4,0
				c0.9,0.9,0.9,2.5,0,3.4l-35.7,35.7C258,754.1,257.4,754.4,256.8,754.4z"/>
		</g>
		<g>
			<path fill="#FFB5AB" d="M132.3,655.8c0,4-3.2,7.2-7.2,7.2c-4,0-7.2-3.2-7.2-7.2c0-4,3.2-7.2,7.2-7.2
				C129.1,648.6,132.3,651.8,132.3,655.8z"/>
			<path d="M125.1,665.3c-5.3,0-9.6-4.3-9.6-9.6c0-5.3,4.3-9.6,9.6-9.6c5.3,0,9.6,4.3,9.6,9.6C134.7,661,130.4,665.3,125.1,665.3z
				 M125.1,651c-2.6,0-4.8,2.1-4.8,4.8c0,2.6,2.1,4.8,4.8,4.8c2.6,0,4.8-2.1,4.8-4.8C129.9,653.1,127.7,651,125.1,651z"/>
		</g>
		<g>
			<path fill="#FFB5AB" d="M160.6,655.8c0,4-3.2,7.2-7.2,7.2c-4,0-7.2-3.2-7.2-7.2c0-4,3.2-7.2,7.2-7.2
				C157.4,648.6,160.6,651.8,160.6,655.8z"/>
			<path d="M153.4,665.3c-5.3,0-9.6-4.3-9.6-9.6c0-5.3,4.3-9.6,9.6-9.6c5.3,0,9.6,4.3,9.6,9.6C163,661,158.7,665.3,153.4,665.3z
				 M153.4,651c-2.6,0-4.8,2.1-4.8,4.8c0,2.6,2.1,4.8,4.8,4.8c2.6,0,4.8-2.1,4.8-4.8C158.2,653.1,156.1,651,153.4,651z"/>
		</g>
		<g>
			<path fill="#231F20" d="M172.7,621.2h-42.9c-1.3,0-2.4-1.1-2.4-2.4v-8.8c0-1.3,1.1-2.4,2.4-2.4h42.9c1.3,0,2.4,1.1,2.4,2.4v8.8
				C175.1,620.1,174,621.2,172.7,621.2z M132.2,616.4h38.1v-4h-38.1V616.4z"/>
		</g>
	</g>
	<g>
		<polygon fill="#FFB5AB" points="307.1,893.4 335.9,843.4 364.8,893.4 		"/>
		<path d="M364.9,895.8C364.9,895.8,364.9,895.8,364.9,895.8h-57.8c-0.9,0-1.7-0.5-2.1-1.2c-0.4-0.7-0.4-1.7,0-2.4l28.9-50
			c0.9-1.5,3.3-1.5,4.2,0l28.6,49.5c0.4,0.4,0.7,1,0.7,1.7C367.3,894.8,366.2,895.8,364.9,895.8z M311.2,891h49.4l-24.7-42.8
			L311.2,891z"/>
	</g>
	<g>
		<polygon fill="#FFB5AB" points="226.8,893.4 255.7,843.4 284.5,893.4 		"/>
		<path d="M284.6,895.8C284.6,895.8,284.6,895.8,284.6,895.8h-57.8c-0.9,0-1.7-0.5-2.1-1.2c-0.4-0.7-0.4-1.7,0-2.4l28.9-50
			c0.9-1.5,3.3-1.5,4.2,0l28.6,49.5c0.4,0.4,0.7,1,0.7,1.7C287,894.8,286,895.8,284.6,895.8z M231,891h49.4l-24.7-42.8L231,891z"/>
	</g>
	<g>
		<polygon fill="#FFB5AB" points="146.5,893.4 175.4,843.4 204.3,893.4 		"/>
		<path d="M204.4,895.8C204.3,895.8,204.3,895.8,204.4,895.8h-57.8c-0.9,0-1.7-0.5-2.1-1.2c-0.4-0.7-0.4-1.7,0-2.4l28.9-50
			c0.9-1.5,3.3-1.5,4.2,0l28.6,49.5c0.4,0.4,0.7,1,0.7,1.7C206.8,894.8,205.7,895.8,204.4,895.8z M150.7,891h49.4l-24.7-42.8
			L150.7,891z"/>
	</g>
	<g>
		<path fill="#FFB5AB" d="M330.4,237.9v0.2h4.5v-59.2c0-59.6-48.3-108-108-108h-2.2c-59.6,0-108,48.3-108,108v59.2h4v-0.2
			c0-8,6-14.6,13.8-15.6v-33.8c0-49.9,40.5-90.4,90.4-90.4h1.9c49.9,0,90.4,40.5,90.4,90.4v33.9C324.6,223.6,330.4,230,330.4,237.9z
			"/>
		<path d="M334.9,240.5h-4.5c-1.3,0-2.4-1.1-2.4-2.4c0-6.8-4.7-12.3-11.2-13.3c-1.2-0.2-2-1.2-2-2.4v-33.9c0-48.5-39.5-88-88-88
			h-1.9c-48.5,0-88,39.5-88,88v33.8c0,1.2-0.9,2.2-2.1,2.4c-6.6,0.8-11.7,6.5-11.7,13.2c0,1.3-1.1,2.6-2.4,2.6h-4
			c-1.3,0-2.4-1.1-2.4-2.4v-59.2c0-60.9,49.5-110.4,110.4-110.4h2.2c60.9,0,110.4,49.5,110.4,110.4v59.2
			C337.3,239.4,336.2,240.5,334.9,240.5z M319.5,220.4c6.7,1.9,11.7,7.4,12.9,14.1v-55.7c0-58.2-47.4-105.6-105.6-105.6h-2.2
			c-58.2,0-105.6,47.4-105.6,105.6v53.7c1.9-6,6.7-10.7,12.9-12.3v-31.8c0-51.2,41.6-92.8,92.8-92.8h1.9c51.2,0,92.8,41.6,92.8,92.8
			V220.4z"/>
	</g>
	<g>
		<path fill="#F1F2F2" d="M136.4,222.1c-0.7,0-1.3,0.1-2,0.2c-7.8,1-13.8,7.5-13.8,15.6v0.2v115.2v0.2c0,8.7,7.1,15.8,15.8,15.8
			c8.7,0,15.8-7.1,15.8-15.8V237.9C152.2,229.1,145.1,222.1,136.4,222.1z"/>
		<path d="M136.4,371.6c-10,0-18.2-8.1-18.2-18.2V238.1c0-9.3,6.8-17,15.9-18.1c1-0.1,1.7-0.2,2.3-0.2c10,0,18.2,8.1,18.2,18.2
			v115.6C154.6,363.5,146.4,371.6,136.4,371.6z M136.4,224.5c-0.4,0-0.8,0.1-1.3,0.1c-7.1,0.9-12.1,6.6-12.1,13.2v115.4
			c0,7.6,6,13.6,13.4,13.6s13.4-6,13.4-13.4V237.9C149.8,230.5,143.8,224.5,136.4,224.5z"/>
	</g>
	<g>
		<path d="M120.7,355.7H93.3c-1.3,0-2.4-1.1-2.4-2.4V238.1c0-1.3,1.1-2.4,2.4-2.4h27.3c1.3,0,2.4,1.1,2.4,2.4v115.2
			C123.1,354.6,122,355.7,120.7,355.7z M95.7,350.8h22.5V240.5H95.7V350.8z"/>
	</g>
	<g>
		<path fill="#F1F2F2" d="M317.1,222.3c-0.8-0.1-1.7-0.3-2.5-0.3c-8.7,0-15.8,7.1-15.8,15.8v115.6c0,8.7,7.1,15.8,15.8,15.8
			c8.7,0,15.8-7.1,15.8-15.8v-0.2V238.1v-0.2C330.4,230,324.6,223.6,317.1,222.3z"/>
		<path d="M314.6,371.6c-10,0-18.2-8.1-18.2-18.2V237.9c0-10,8.1-18.2,18.2-18.2c1,0,2,0.1,2.9,0.3c8.8,1.4,15.3,9,15.3,17.9v115.4
			C332.8,363.5,324.6,371.6,314.6,371.6z M314.6,224.5c-7.4,0-13.4,6-13.4,13.4v115.6c0,7.4,6,13.4,13.4,13.4
			c7.4,0,13.4-6,13.4-13.4V238.1c0-6.8-4.7-12.3-11.2-13.3C316,224.6,315.3,224.5,314.6,224.5z"/>
	</g>
	<g>
		<path d="M357.7,355.7h-27.3c-1.3,0-2.4-1.1-2.4-2.4V238.1c0-1.3,1.1-2.4,2.4-2.4h27.3c1.3,0,2.4,1.1,2.4,2.4v115.2
			C360.1,354.6,359,355.7,357.7,355.7z M332.8,350.8h22.5V240.5h-22.5V350.8z"/>
	</g>
	<g>
		<path d="M196.7,441.6c-1.3,0-2.4-1.1-2.4-2.4V298.1h-43c-1.3,0-2.4-1.1-2.4-2.4s1.1-2.4,2.4-2.4h45.4c1.3,0,2.4,1.1,2.4,2.4v143.5
			C199.1,440.5,198,441.6,196.7,441.6z"/>
	</g>
	<g>
		<path d="M253.4,441.6c-1.3,0-2.4-1.1-2.4-2.4V295.7c0-1.3,1.1-2.4,2.4-2.4h45.4c1.3,0,2.4,1.1,2.4,2.4s-1.1,2.4-2.4,2.4h-43v141.1
			C255.8,440.5,254.7,441.6,253.4,441.6z"/>
	</g>
	<g>
		<g>
			<polygon fill="#AFEBFF" points="282.4,378.1 213,418.1 213,484.3 282.4,524.3 			"/>
			<path d="M282.4,526.7c-0.4,0-0.8-0.1-1.2-0.3l-69.4-40.1c-0.7-0.4-1.2-1.2-1.2-2.1v-66.1c0-0.9,0.5-1.7,1.2-2.1l69.4-40.1
				c0.7-0.4,1.7-0.4,2.4,0c0.7,0.4,1.2,1.2,1.2,2.1v146.3c0,0.9-0.5,1.7-1.2,2.1C283.2,526.6,282.8,526.7,282.4,526.7z M215.4,482.9
				l64.6,37.3V382.2l-64.6,37.3V482.9z"/>
		</g>
		<g>
			<path fill="#FFFFFF" d="M174.5,418c-18.3,0-33.1,14.8-33.1,33.1c0,18.3,14.8,33.1,33.1,33.1H213v-0.1v-66.1V418H174.5z"/>
			<path d="M213,486.7h-38.4c-19.6,0-35.5-15.9-35.5-35.5c0-19.6,15.9-35.5,35.5-35.5H213c1.3,0,2.4,1.1,2.4,2.4v66.2
				C215.4,485.6,214.3,486.7,213,486.7z M174.5,420.4c-17,0-30.7,13.8-30.7,30.7c0,16.9,13.8,30.7,30.7,30.7h36v-61.5H174.5z"/>
		</g>
		<g>
			<path fill="#FFFFFF" d="M282.3,426.6v49.1c12.3-1.5,21.8-11.9,21.8-24.6S294.6,428,282.3,426.6z"/>
			<path d="M282.3,478.1c-0.6,0-1.2-0.2-1.6-0.6c-0.5-0.5-0.8-1.1-0.8-1.8v-49.1c0-0.7,0.3-1.3,0.8-1.8c0.5-0.5,1.2-0.7,1.9-0.6
				c13.6,1.6,23.9,13.2,23.9,26.9c0,13.7-10.3,25.3-23.9,26.9C282.5,478.1,282.4,478.1,282.3,478.1z M284.7,429.4v43.4
				c9.9-2.4,17-11.3,17-21.7C301.7,440.7,294.6,431.9,284.7,429.4z"/>
		</g>
	</g>
</g>
</svg>
